# AST/ASF file generated using VICON BodyLanguage
# -----------------------------------------------
:version 1.10
:name VICON
:units
  mass 1.0
  length 0.45
  angle deg
:documentation
   .ast/.asf automatically generated from VICON data using
   VICON BodyBuilder and BodyLanguage model FoxedUp or BRILLIANT.MOD
:root
   order TX TY TZ RX RY RZ
   axis XYZ
   position 0 0 0  
   orientation 0 0 0 
:bonedata
  begin
     id 1 
     name lhipjoint
     direction 0.596438 -0.722117 0.35044 
     length 2.43043 
     axis 0 0 0  XYZ
  end
  begin
     id 2 
     name lfemur
     direction 0.34202 -0.939693 0  
     length 7.0339  
     axis 0 0 20  XYZ
    dof rx ry rz
    limits (-160.0 20.0)
           (-70.0 70.0)
           (-60.0 70.0)
  end
  begin
     id 3 
     name ltibia
     direction 0.34202 -0.939693 0   
     length 7.56602   
     axis 0 0 20   XYZ
    dof rx
    limits (-10.0 170.0)
  end
  begin
     id 4 
     name lfoot
     direction 0.0985677 -0.270812 0.957572   
     length 1.85172   
     axis -90 7.62852e-016 20   XYZ
    dof rx rz
    limits (-45.0 90.0)
           (-70.0 20.0)
  end
  begin
     id 5 
     name ltoes
     direction 1.53534e-011 -4.21843e-011 1   
     length 0.929904   
     axis -90 7.62852e-016 20   XYZ
    dof rx
    limits (-90.0 20.0)
  end
  begin
     id 6 
     name rhipjoint
     direction -0.585088 -0.729594 0.354068   
     length 2.40552  
     axis 0 0 0  XYZ 
  end
  begin
     id 7 
     name rfemur
     direction -0.34202 -0.939693 0   
     length 7.12573   
     axis 0 0 -20   XYZ
    dof rx ry rz
    limits (-160.0 20.0)
           (-70.0 70.0)
           (-70.0 60.0)
  end
  begin
     id 8 
     name rtibia
     direction -0.34202 -0.939693 0   
     length 7.35777   
     axis 0 0 -20   XYZ
    dof rx
    limits (-10.0 170.0)
 end
 begin
     id 9 
     name rfoot
     direction -0.120907 -0.33219 0.935431   
     length 2.0994  
     axis -90 -7.62852e-016 -20   XYZ
    dof rx rz
    limits (-45.0 90.0)
           (-20.0 70.0)
  end
  begin
     id 10 
     name rtoes
     direction -1.53577e-011 -4.21787e-011 1   
     length 1.04244   
     axis -90 -7.62852e-016 -20   XYZ
    dof rx
    limits (-90.0 20.0)
  end
  begin
     id 11 
     name lowerback
     direction 0.00268363 0.993603 -0.112896   
     length 2.15839   
     axis 0 0 0   XYZ
    dof rx ry rz
    limits (-20.0 45.0)
           (-30.0 30.0)
           (-30.0 30.0)
  end
  begin
     id 12 
     name upperback
     direction 0.0272563 0.999411 -0.0208618   
     length 2.16443   
     axis 0 0 0   XYZ
    dof rx ry rz
    limits (-20.0 45.0)
           (-30.0 30.0)
           (-30.0 30.0)
  end
  begin
     id 13 
     name thorax
     direction 0.0254655 0.999174 0.0316806   
     length 2.19003   
     axis 0 0 0   XYZ
    dof rx ry rz
    limits (-20.0 45.0)
           (-30.0 30.0)
           (-30.0 30.0)
  end
  begin
     id 14 
     name lowerneck
     direction -0.0102178 0.988048 0.15381   
     length 1.61507   
     axis 0 0 0   XYZ
    dof rx ry rz
    limits (-20.0 45.0)
           (-30.0 30.0)
           (-30.0 30.0)
  end
  begin
     id 15 
     name upperneck
     direction -0.0061965 0.994088 -0.108398   
     length 1.64042   
     axis 0 0 0   XYZ
    dof rx ry rz
    limits (-20.0 45.0)
           (-30.0 30.0)
           (-30.0 30.0)
  end
  begin
     id 16
     name head
     direction -0.00151929 0.998591 -0.0530385  
     length 1.64343  
     axis 0 0 0   XYZ
    dof rx ry rz
    limits (-20.0 45.0)
           (-30.0 30.0)
           (-30.0 30.0)
  end
  begin
     id 17 
     name lclavicle
     direction 0.948974 0.284245 -0.136574  
     length 3.3483  
     axis 0 0 0   XYZ
    dof ry rz
    limits (-20.0 10.0)
           (0.0 20.0)
  end
  begin
     id 18 
     name lhumerus
     direction 1 -4.48961e-011 1.68576e-027   
     length 4.93485   
     axis -180 -30 -90   XYZ
    dof rx ry rz
    limits (-60.0 90.0)
           (-90.0 90.0)
           (-90.0 90.0)
  end
  begin
     id 19
     name lradius
     direction 1 -4.48965e-011 -2.46405e-027   
     length 3.41719   
     axis -180 -30 -90   XYZ
    dof rx
    limits (-10.0 170.0)
  end
  begin
     id 20
     name lwrist
     direction 1 -4.48968e-011 -8.00486e-028   
     length 1.7086   
     axis 3.27501e-015 90 90   XYZ
    dof ry
    limits (-180.0 0.0)
 end
  begin
     id 21 
     name lhand
     direction 1 -4.48977e-011 -1.60161e-027   
     length 0.6241   
     axis 1.02148e-015 90 90   XYZ
    dof rx rz
    limits (-90.0 90.0)
           (-45.0 45.0)
  end
  begin
     id 22 
     name lfingers
     direction 1 -4.49049e-011 -3.21275e-027   
     length 0.503166   
     axis 2.04295e-015 90 90   XYZ
    dof rx
    limits (0.0 90.0)
  end
  begin
     id 23
     name lthumb
     direction 0.707107 -6.34975e-011 0.707107   
     length 0.722448   
     axis -90 45 -1.62303e-014   XYZ
    dof rx rz
    limits (-45.0 45.0)
           (-45.0 45.0)
  end
  begin
     id 24 
     name rclavicle
     direction -0.904485 0.355099 -0.236246   
     length 3.18329  
     axis 0 0 0   XYZ 
    dof ry rz
    limits (-10.0 20.0)
           (-20.0 0.0)
  end
  begin
     id 25 
     name rhumerus
     direction -1 -4.48953e-011 1.32816e-027  
     length 5.22034   
     axis -180 30 90   XYZ
    dof rx ry rz
    limits (-90.0 60.0)
           (-90.0 90.0)
           (-90.0 90.0)
  end
  begin
     id 26 
     name rradius
     direction -1 -4.48965e-011 -3.93727e-027   
     length 3.41809   
     axis -180 30 90   XYZ
    dof rx
    limits (-10.0 170.0)
  end
  begin
     id 27 
     name rwrist
     direction -1 -4.48962e-011 -8.003e-028   
     length 1.70904   
     axis 3.27501e-015 -90 -90   XYZ
    dof ry
    limits (-180.0 0.0)
  end
  begin
     id 28
     name rhand
     direction -1 -4.49008e-011 -1.60365e-027   
     length 0.77534   
     axis 1.02148e-015 -90 -90   XYZ
    dof rx rz
    limits (-90.0 90.0)
           (-45.0 45.0)
  end
  begin
     id 29
     name rfingers
     direction -1 -4.49001e-011 -3.2064e-027   
     length 0.625099   
     axis 2.04295e-015 -90 -90   XYZ
    dof rx
    limits (0.0 90.0)
  end
  begin
     id 30
     name rthumb
     direction -0.707107 -6.34989e-011 0.707107   
     length 0.897521   
     axis -90 -45 1.62303e-014   XYZ
    dof rx rz
    limits (-45.0 45.0)
           (-45.0 45.0)
  end
:hierarchy
  begin
    root lhipjoint rhipjoint lowerback
    lhipjoint lfemur
    lfemur ltibia
    ltibia lfoot
    lfoot ltoes
    rhipjoint rfemur
    rfemur rtibia
    rtibia rfoot
    rfoot rtoes
    lowerback upperback
    upperback thorax
    thorax lowerneck lclavicle rclavicle
    lowerneck upperneck
    upperneck head
    lclavicle lhumerus
    lhumerus lradius
    lradius lwrist
    lwrist lhand lthumb
    lhand lfingers
    rclavicle rhumerus
    rhumerus rradius
    rradius rwrist
    rwrist rhand rthumb
    rhand rfingers
  end

#!OML:ASF \\sashay\E\Suitcase\Project 1\Capture day 1\Session 1\Male1.ASF
:FULLY-SPECIFIED
:DEGREES
514
root 1.62248 17.3103 -3.4 0.395267 1.9882 4.20159
lowerback 3.79424 -0.269104 -5.0463
upperback -1.2021 -0.625599 -0.275648
thorax -3.32253 -0.209502 2.58713
lowerneck -16.7246 -4.08782 4.39449
upperneck 27.2711 -4.51326 -9.14626
head 11.2563 -2.77305 -4.7747
rclavicle -1.11894e-014 1.98785e-015
rhumerus -26.7337 -30.6945 -66.7675
rradius 23.9374
rwrist -4.12685
rhand -15.6035 29.0983
rfingers 7.12502
rthumb 10.5827 -0.615213
lclavicle -1.11894e-014 1.98785e-015
lhumerus -35.6033 8.08415 79.2386
lradius 27.6965
lwrist -9.39314
lhand -2.83854 41.2621
lfingers 7.12502
lthumb 22.8689 69.9261
rfemur -14.9667 -5.7472 14.5788
rtibia 66.7206
rfoot -4.42139 -9.47337
rtoes 18.2321
lfemur -9.59376 -2.85974 -30.1105
ltibia 22.6266
lfoot -14.7055 2.96721
ltoes 2.63195
515
root 1.62727 17.2992 -3.31763 0.476809 2.42833 4.23124
lowerback 4.10123 -0.429996 -5.08395
upperback -1.34024 -0.863607 -0.228647
thorax -3.61881 -0.316543 2.6772
lowerneck -16.399 -3.47692 4.74651
upperneck 27.5162 -3.50498 -9.87635
head 11.3434 -2.3652 -4.98149
rclavicle -5.3734e-016 2.78299e-015
rhumerus -27.0227 -31.0456 -66.4675
rradius 23.6566
rwrist -3.61991
rhand -15.9708 28.5748
rfingers 7.12502
rthumb 10.2283 -1.15651
lclavicle -5.3734e-016 2.78299e-015
lhumerus -35.6709 7.82229 79.4321
lradius 28.4427
lwrist -8.77847
lhand -2.90438 41.7039
lfingers 7.12502
lthumb 22.8057 70.3757
rfemur -16.2241 -5.79889 14.5999
rtibia 66.7068
rfoot -5.63837 -9.10492
rtoes 15.9375
lfemur -9.55794 -3.07566 -30.2583
ltibia 22.9694
lfoot -14.9157 3.24773
ltoes 1.18432
516
root 1.62861 17.2755 -3.19678 0.239049 2.71518 4.17432
lowerback 4.19627 -0.573909 -5.06271
upperback -1.13679 -1.05251 -0.197936
thorax -3.44501 -0.418731 2.70979
lowerneck -16.8177 -3.3491 4.87101
upperneck 27.5551 -3.38386 -9.83094
head 11.4526 -2.29643 -4.98969
rclavicle 6.35956e-015 4.96962e-015
rhumerus -27.1886 -31.3081 -66.5379
rradius 23.6956
rwrist -3.32815
rhand -15.7219 28.3326
rfingers 7.12502
rthumb 10.4684 -1.38672
lclavicle 6.35956e-015 4.96962e-015
lhumerus -35.0001 7.89966 79.4107
lradius 28.2995
lwrist -8.43635
lhand -3.6443 42.145
lfingers 7.12502
lthumb 22.0955 70.9026
rfemur -16.8549 -5.67736 14.6769
rtibia 66.5213
rfoot -6.15924 -8.54503
rtoes 15.839
lfemur -9.08944 -3.33026 -30.2932
ltibia 23.3195
lfoot -14.9127 3.68484
ltoes 1.67566
517
root 1.63101 17.2549 -3.11177 0.23002 2.82064 4.29458
lowerback 4.44572 -0.505029 -5.10686
upperback -1.12913 -0.981835 -0.308361
thorax -3.5852 -0.380314 2.61912
lowerneck -17.0842 -3.57564 4.98824
upperneck 27.3984 -3.72975 -9.94028
head 11.4069 -2.4599 -5.09602
rclavicle 7.56857e-015 1.43125e-014
rhumerus -27.346 -32.3058 -66.1346
rradius 22.8625
rwrist -2.68907
rhand -15.462 29.3
rfingers 7.12502
rthumb 10.7191 -0.406502
lclavicle 7.56857e-015 1.43125e-014
lhumerus -34.8404 7.28327 79.5707
lradius 29.0853
lwrist -8.0648
lhand -3.51827 40.8751
lfingers 7.12502
lthumb 22.2165 69.6183
rfemur -17.8831 -5.47808 14.585
rtibia 66.3198
rfoot -7.30172 -8.14815
rtoes 13.9811
lfemur -8.91045 -3.43969 -30.4657
ltibia 23.7696
lfoot -15.2651 4.0281
ltoes 1.68373
518
root 1.63051 17.2392 -2.99867 0.102671 3.20468 4.64357
lowerback 4.28141 -0.739983 -5.73024
upperback -0.818909 -1.30475 -0.186485
thorax -3.12893 -0.545652 3.11103
lowerneck -17.2938 -3.6085 5.07638
upperneck 27.5836 -3.68415 -10.3549
head 11.5106 -2.48556 -5.28244
rclavicle 1.0715e-014 -2.38542e-015
rhumerus -26.9067 -31.787 -66.453
rradius 22.7473
rwrist -3.10005
rhand -15.6737 28.7594
rfingers 7.12502
rthumb 10.515 -0.957573
lclavicle 1.0715e-014 -2.38542e-015
lhumerus -34.2037 7.64239 79.8278
lradius 29.2512
lwrist -7.76701
lhand -3.84403 40.9151
lfingers 7.12502
lthumb 21.9037 69.6953
rfemur -18.6978 -5.4556 14.132
rtibia 65.9818
rfoot -8.46469 -7.48846
rtoes 12.3092
lfemur -8.40892 -3.49302 -30.8878
ltibia 24.0413
lfoot -15.654 4.00549
ltoes 2.78962
519
root 1.6192 17.2101 -2.90678 0.00503613 3.39754 3.65983
lowerback 4.59131 -0.823848 -4.82941
upperback -0.76011 -1.37563 0.0589671
thorax -3.24828 -0.593351 2.87041
lowerneck -17.2545 -3.22379 4.98022
upperneck 27.3657 -3.17776 -10.106
head 11.4794 -2.23314 -5.09126
rclavicle 5.72127e-015 -1.49089e-014
rhumerus -27.3037 -32.5975 -66.3021
rradius 22.7947
rwrist -2.22335
rhand -15.0125 27.9453
rfingers 7.12502
rthumb 11.1527 -1.73832
lclavicle 5.72127e-015 -1.49089e-014
lhumerus -33.4944 7.43614 79.8201
lradius 29.1578
lwrist -7.43204
lhand -3.81974 41.1908
lfingers 7.12502
lthumb 21.9271 69.9682
rfemur -19.6829 -5.0073 15.4219
rtibia 65.5443
rfoot -8.78473 -7.93162
rtoes 14.0535
lfemur -8.51655 -3.76056 -29.7902
ltibia 24.3958
lfoot -15.1537 4.3977
ltoes -0.0577237
520
root 1.63004 17.1838 -2.78755 -0.00518472 3.67394 4.62616
lowerback 4.71865 -0.867394 -5.7433
upperback -0.954165 -1.50782 -0.126658
thorax -3.49494 -0.632121 3.20549
lowerneck -16.8989 -3.524 5.03759
upperneck 27.3903 -3.49897 -10.513
head 11.3721 -2.42158 -5.28261
rclavicle -1.62118e-014 -9.14409e-015
rhumerus -28.0004 -32.4603 -65.6791
rradius 22.205
rwrist -2.51588
rhand -15.2474 28.2683
rfingers 7.12502
rthumb 10.9261 -1.42744
lclavicle -1.62118e-014 -9.14409e-015
lhumerus -33.8793 6.8141 80.2251
lradius 29.8802
lwrist -6.66507
lhand -3.92808 41.5862
lfingers 7.12502
lthumb 21.823 70.3757
rfemur -20.4127 -5.06127 14.1159
rtibia 65.0624
rfoot -10.3496 -7.32476
rtoes 11.5693
lfemur -8.01686 -3.73222 -30.9988
ltibia 24.7024
lfoot -15.7537 4.85962
ltoes -0.142925
521
root 1.61326 17.1744 -2.698 -0.0890167 3.75248 4.39209
lowerback 4.80727 -0.920074 -5.82625
upperback -0.751695 -1.57668 0.0268126
thorax -3.3214 -0.672722 3.41555
lowerneck -16.9946 -3.65271 5.21654
upperneck 26.9462 -3.68155 -10.7996
head 11.1912 -2.52687 -5.41869
rclavicle 2.54258e-014 -4.37326e-015
rhumerus -27.8615 -32.4583 -65.8354
rradius 22.0828
rwrist -2.51729
rhand -14.7691 27.9305
rfingers 7.12502
rthumb 11.3874 -1.74026
lclavicle 2.54258e-014 -4.37326e-015
lhumerus -33.0385 6.87029 80.3351
lradius 29.6754
lwrist -6.48852
lhand -4.08729 42.2331
lfingers 7.12502
lthumb 21.6701 71.0404
rfemur -21.3531 -4.55171 14.5117
rtibia 64.4022
rfoot -11.5357 -6.87182
rtoes 10.1858
lfemur -7.7467 -3.88875 -30.6779
ltibia 25.055
lfoot -15.9087 5.16472
ltoes 1.17248
522
root 1.61157 17.1568 -2.60622 -0.111115 4.02903 4.3524
lowerback 4.99251 -0.9377 -5.85854
upperback -0.671875 -1.61182 0.0283388
thorax -3.33844 -0.690692 3.44126
lowerneck -17.6413 -3.32269 5.38779
upperneck 26.6476 -3.35199 -10.5994
head 11.2437 -2.34342 -5.33971
rclavicle 6.34558e-015 -1.78906e-015
rhumerus -28.2006 -32.7298 -65.7597
rradius 21.934
rwrist -2.45572
rhand -14.62 27.8213
rfingers 7.12502
rthumb 11.5312 -1.84152
lclavicle 6.34558e-015 -1.78906e-015
lhumerus -32.847 5.95674 80.6833
lradius 30.5146
lwrist -5.79009
lhand -3.92255 43.015
lfingers 7.12502
lthumb 21.8283 71.8039
rfemur -22.2351 -4.17235 14.5645
rtibia 63.6927
rfoot -11.3347 -7.62469
rtoes 11.1386
lfemur -7.42103 -3.9307 -30.6145
ltibia 25.2687
lfoot -16.1548 5.12365
ltoes 3.2825
523
root 1.61313 17.1479 -2.48532 -0.289817 4.2535 4.33295
lowerback 5.25818 -1.08115 -5.89217
upperback -0.671223 -1.82019 0.115151
thorax -3.46255 -0.788923 3.57286
lowerneck -16.9018 -3.47972 4.77051
upperneck 26.1533 -3.57557 -9.9363
head 10.9226 -2.41526 -4.9548
rclavicle 5.71506e-015 5.1684e-015
rhumerus -28.4065 -33.2064 -65.3349
rradius 21.0855
rwrist -1.77766
rhand -14.5787 27.9677
rfingers 7.12502
rthumb 11.5711 -1.69288
lclavicle 5.71506e-015 5.1684e-015
lhumerus -32.4545 5.81656 80.8258
lradius 30.4606
lwrist -5.35594
lhand -4.26495 41.8854
lfingers 7.12502
lthumb 21.4995 70.7123
rfemur -22.6753 -4.16425 14.4439
rtibia 62.8148
rfoot -12.2348 -7.07128
rtoes 9.89574
lfemur -6.85482 -4.20384 -30.6763
ltibia 25.5926
lfoot -16.5898 5.53251
ltoes 3.49176
524
root 1.61024 17.1328 -2.39282 -0.257098 4.35723 4.55904
lowerback 5.38349 -1.066 -6.17678
upperback -0.665255 -1.82772 0.0987742
thorax -3.51886 -0.785442 3.71978
lowerneck -17.1117 -3.15224 5.33178
upperneck 26.4544 -2.98678 -10.9266
head 11.0964 -2.21655 -5.37324
rclavicle -2.59631e-014 3.97569e-016
rhumerus -29.0715 -33.4624 -65.0844
rradius 21.4228
rwrist -1.43884
rhand -14.2268 27.4549
rfingers 7.12502
rthumb 11.9104 -2.18629
lclavicle -2.59631e-014 3.97569e-016
lhumerus -32.1042 5.43793 81.157
lradius 30.7311
lwrist -5.65666
lhand -4.61864 42.2455
lfingers 7.12502
lthumb 21.1598 71.1108
rfemur -23.6164 -3.80027 14.1458
rtibia 61.9113
rfoot -12.65 -7.26434
rtoes 9.92192
lfemur -6.59425 -4.47032 -30.9623
ltibia 25.787
lfoot -16.7482 5.88048
ltoes 4.25082
